<svg xmlns="http://www.w3.org/2000/svg" fill="none" viewBox="0 0 423 82" class="hidden w-[230px] xl:flex"><g clip-path="url(#i1825449985__a)"><path fill="currentColor" d="m275.714 54.585 3.57-4.24c2.18 1.99 5.06 3.35 7.75 3.35 3.17 0 4.82-1.35 4.82-3.45 0-2.22-1.86-2.93-4.58-4.07l-4.08-1.76c-3.09-1.27-6.18-3.77-6.18-8.23 0-4.97 4.42-8.88 10.59-8.88 3.55 0 7.12 1.43 9.64 3.96l-3.14 3.9c-1.98-1.6-3.98-2.51-6.5-2.51s-4.35 1.18-4.35 3.17c0 2.14 2.17 2.93 4.77 3.98l4.01 1.66c3.69 1.51 6.13 3.91 6.13 8.29 0 5.02-4.18 9.29-11.26 9.29-4.06 0-8.17-1.57-11.18-4.45m38.16-21.54h-8.63v-5.19h23.43v5.19h-8.63v25.42h-6.17zm20.59 9.99c0-9.95 5.58-15.74 13.7-15.74s13.7 5.82 13.7 15.74-5.58 15.99-13.7 15.99-13.7-6.04-13.7-15.99m21.07 0c0-6.51-2.87-10.39-7.37-10.39s-7.36 3.89-7.36 10.39 2.87 10.65 7.36 10.65 7.37-4.14 7.37-10.65m39.31 15.43-7.12-12.49c3.47-1.38 5.78-4.23 5.78-8.81 0-7.06-5.11-9.31-11.54-9.31h-10.67v30.61h6.17v-11.49h4.24l6.21 11.49zm-17.38-25.69h3.93c3.92 0 6.04 1.11 6.04 4.39s-2.12 4.9-6.04 4.9h-3.93zm26.2-4.92h18.8v5.19h-12.63v7h10.72v5.18h-10.72v8.06h13.1v5.18h-19.27zM.874 44.675v-16.81h6.17v17.37c0 6.33 2.19 8.46 5.76 8.46s5.88-2.13 5.88-8.46v-17.37h5.95v16.81c0 10.17-4.32 14.37-11.82 14.37s-11.94-4.2-11.94-14.37m75.45-16.81h-6.18v30.61h6.18zm16.89 5.19h-8.63v-5.19h23.43v5.19h-8.63v25.42h-6.17zm23.12-5.19h18.8v5.19h-12.63v7h10.72v5.18h-10.72v8.06h13.1v5.18h-19.27zm28.44.01h8.41c9.36 0 15.14 4.85 15.14 15.18s-5.78 15.43-14.81 15.43h-8.74zm8.02 25.62c5.68 0 9.2-3.02 9.2-10.45s-3.52-10.19-9.2-10.19h-1.85v20.64zm-99.63-25.63v21.56l-2.5-5.35-8.75-16.22h-6.33v30.61h5.88v-21.56l2.49 5.31 8.75 16.25h6.34v-30.61h-5.88z"></path><path fill="#DB1D24" d="M183.374 44.475c0-3.67 2.99-6.66 6.66-6.66s6.66 2.99 6.66 6.66-2.99 6.66-6.66 6.66-6.66-2.99-6.66-6.66m-.58 0c0 3.99 3.24 7.23 7.23 7.23s7.23-3.24 7.23-7.23-3.24-7.23-7.23-7.23-7.23 3.24-7.23 7.23m65.7-.01c0-3.67 2.99-6.66 6.66-6.66s6.66 2.99 6.66 6.66-2.99 6.66-6.66 6.66-6.66-2.99-6.66-6.66m-.57 0c0 3.99 3.24 7.23 7.23 7.23s7.23-3.24 7.23-7.23-3.24-7.23-7.23-7.23-7.23 3.24-7.23 7.23"></path><path fill="#DB1D24" d="m245.464 52.465-.09.1c-5.83 6.64-13.52 11.04-20.57 11.78l.06.57c7.2-.76 15.03-5.23 20.94-11.98l.09-.1c.66-.75 1.75-2.01 4.21-2.01 1.46 0 3.03.74 4.11 1.92.79.87 1.7 2.4 1.48 4.71-.31 3.31-5.06 10.55-12.84 14.96-6.4 3.64-13.25 5.49-20.34 5.49s-13.93-1.85-20.34-5.49c-7.77-4.42-12.52-11.65-12.84-14.96-.22-2.32.68-3.84 1.48-4.71 1.08-1.19 2.65-1.92 4.11-1.92 2.46 0 3.55 1.26 4.21 2.01l.09.1c5.91 6.73 13.72 11.21 20.91 11.98l.06-.57c-7.04-.76-14.72-5.16-20.54-11.78l-.09-.1c-.67-.77-1.93-2.21-4.64-2.21-1.61 0-3.35.81-4.54 2.11-.87.96-1.86 2.63-1.62 5.16.32 3.43 5.18 10.9 13.12 15.41 6.49 3.69 13.43 5.56 20.62 5.56s14.13-1.87 20.62-5.56c7.94-4.51 12.8-11.98 13.12-15.41.24-2.52-.75-4.2-1.62-5.16-1.18-1.3-2.92-2.11-4.54-2.11-2.72 0-3.97 1.44-4.64 2.21"></path><path fill="#DB1D24" d="M235.374 23.055c.43.33 1.49 1.15 2.05 1.64v31.49c-.26.17-14.6 9.38-14.9 9.58-.3-.19-14.64-9.41-14.9-9.58v-31.49c.32-.31 1.3-1.2 1.91-1.64zm.1-.57h-26.12l-.07.05c-.67.47-1.91 1.58-2.16 1.85l-.08.08v32.03l15.47 9.95 15.48-9.95v-32.06l-.1-.08c-.55-.49-1.76-1.43-2.25-1.81l-.08-.06h-.1z"></path><path fill="#DB1D24" d="M186.494 27.395c1.41-.97 3.77-2.6 7.65-8.1 1.51-2.15 4.86-6.25 10.24-9.59 5.49-3.41 11.59-5.14 18.14-5.14s12.65 1.73 18.14 5.14c5.38 3.35 8.72 7.45 10.24 9.59 3.88 5.5 6.24 7.12 7.65 8.1 0 0 .22.16.36.25v.06c0 .58-.05 2.33-.56 4.17-.82 2.96-2.39 4.75-4.67 5.32-3.15.8-6.34-1.02-9.75-5.57l-.49-.68c-2.3-3.27-9.29-13.23-20.91-13.23s-18.62 9.96-20.91 13.23l-.49.68c-3.41 4.55-6.6 6.37-9.75 5.57-2.28-.58-3.85-2.37-4.67-5.32-.52-1.85-.56-3.59-.56-4.17v-.06c.13-.09.35-.25.35-.25m17.57-18.18c-5.47 3.4-8.87 7.57-10.41 9.75-3.82 5.41-6.12 7-7.5 7.96l-.6.42v.14c0 .09-.07 2.2.58 4.53.87 3.13 2.63 5.12 5.09 5.74 3.4.86 6.78-1.03 10.35-5.78l.5-.7c2.25-3.21 9.11-12.99 20.44-12.99s18.19 9.78 20.44 12.99l.5.7c3.57 4.75 6.95 6.64 10.35 5.78 2.46-.62 4.22-2.61 5.09-5.74.65-2.33.58-4.44.58-4.53v-.14l-.6-.42c-1.38-.95-3.69-2.54-7.5-7.96-1.54-2.18-4.94-6.35-10.4-9.75-5.58-3.47-11.78-5.23-18.44-5.23s-12.86 1.76-18.44 5.23m18.64 71.52c-2.29 0-3.23-2.6-3.23-2.6s1.93.12 3.04.12 1.84-.03 2.17-.05c-.38.55-.67.55-1.13.55-.23 0-.58.19-.57.54 0 .27.23.5.6.5.83 0 1.47-1.16 1.65-1.66 0 0 .49-.02.64-.04 0 0-.88 2.63-3.17 2.63m-.2-2.68c-1.34 0-3.77-.2-3.77-.2l.08.29c.05.12 1.03 3.18 3.85 3.18 2.48 0 3.51-2.32 3.83-3.27v-.21c-.37.07-2.65.2-3.99.2"></path><path fill="#DB1D24" d="M230.094 79.825c-2.11 0-3.18-1.5-3.18-1.5.34-.02.68-.1.68-.1.33.42.98.88 1.53.88s.72-.24.74-.43c.03-.27-.21-.44-.36-.41-.08.01-.1.06-.32.08-.55.03-.62-.23-.62-.23 2.51-.31 3.58-.63 5.07-1.04-.36.67-1.22 2.75-3.54 2.75m3.85-3.28c-4.14 1.23-8.22 1.36-8.22 1.36l.41.25c.5.92 1.67 2.29 4.03 2.29s3.68-2.02 4.37-3.82l-.58-.08zm-18.53 3.28c-2.32 0-3.18-2.07-3.54-2.75 1.5.4 2.56.73 5.07 1.04 0 0-.08.26-.62.23-.21-.01-.24-.06-.32-.08-.15-.03-.39.13-.36.41.02.19.18.43.74.43s1.21-.46 1.53-.88c0 0 .34.08.68.1 0 0-1.07 1.5-3.18 1.5m-3.85-3.28-.58.08c.69 1.8 1.93 3.82 4.37 3.82s3.64-1.44 4.16-2.29l.28-.25s-4.08-.14-8.22-1.36m24.97-44.04h-28.02v1.91h28.02zm-7.96 14.87c-1.64 0-2.33-.92-2.33-1.24 0-.2.46-.43 1.24-.43s1.09.49 1.09.49zm-5-8.39c-.07.43-.38.6-.63.47-.24-.13-.19-.48-.02-.76.17-.27.55-.58.66-.53s.03.57 0 .82m-1.38 4.23c-.5-.82-.74-1.71-.74-1.71h1.46s-.21.87-.72 1.71m-.9-3.76c-.24.13-.56-.04-.63-.47-.04-.24-.1-.77.01-.82s.46.26.64.53c.17.27.22.63-.02.76m10.97 3.2v-3.68l.39-.63-1.01-1.78-1.01 1.78.4.63v1.93h-1.16v-1.93l.4-.63-1.01-1.78-1.01 1.78.4.63v1.93h-1.16v-1.93l.4-.63-1.01-1.79-1.01 1.78.4.64v3.68h2.27v1.15s-.81-.06-1.41.2-1.32.63-1.67.75-.51.09-.57-.09c-.06-.17 0-.29.2-.46.1-.08.99-.48 1.09-.78.06-.17-.03-.22-.12-.29-.2-.17-1.52-1.18-1.52-1.18s.2-.66.2-1.06v-.95c0-.86.38-2.17 1.29-3.03h-1.52l-.92-2.05-1.18 2.05h-1.13l-1.09-2.09-1 2.07h-1.55s.75 1.13 1.13 1.73c.38.59 1.17 2.15 1.31 2.89.04.21.04.56-.27.8-.31.25-1.17.92-1.17 1.88s.42 1.34.54 1.54c.11.19.61.82.61 1.11s-.15.63-.15.63-.59 1.27-.79 1.57c-.19.31-.8.69-1-.31-.19-1-.33-3.72-.29-4.01s.09-.65.25-.92c.15-.27.79-1.36 1.05-2.05 0 0-1.79-.19-2.47-4.32-.02-.11-.19-.25-.32.04-.14.29-.23.33-.31.44s-.27.13-.5.04c-.23-.1-.46-.25-.71-.31s-.56-.13-.75.23-.56 1.19-.75 1.57-.58.58-.98.46c-.4-.11-.83-.29-1.02-.36-.19-.08-.31 0-.19.19.11.19.46.92.56 1.3s.25 1.48.23 1.71.14.23.33.02.94-.96 1.65-1.3c.71-.35 1.77-.44 2.03.02.27.46-.45 1.2-1.05 1.5-.23.12-.21.46.02.52s.77.15.9.65.18 5.3.24 7.32c.06 2.01.75 2.5 1.58 2.53s1.41 0 1.41 0 .06 1.06-.17 2.73-.23 2.33.32 3.05.95 1.32.98 1.75.03.72-.06 1.21-.09 1.38 1.21 1.12 3.45-1.12 2.45-2.42c-1.01-1.3-1.49-2.33-1.35-2.68.14-.34.86-.55 1.24-.92.37-.37.4-.78-.03-1.32-.43-.55-1.75-2.33-1.44-3.37 0 0 4.8 5.12 5.15 5.46.35.35.68.26.72-.29.03-.4-.09-.75-.14-1.06-.06-.32-.09-.89-.09-1.47s.2-1.49.26-1.93c.06-.43-.06-1.21-.75-1.27-.34-.03-.8.06-.8-.35s.14-.98.23-1.32c.09-.35.03-.4-.2-.55-.23-.14-.63-.09-.84.14-.2.23-.72.46-1.06.23 0 0 .49-1.35 1.27-2.13 0 0 2.13.66 2.91 1.52v8.6c0 .51 1.38.57 1.38-.03v-8.77s.6-.75.66-1.24c.06-.47.09-.69-.06-1.21 0 0 .43-.29.43-.95s-.49-1.76-1.01-2.25v-1.69h2.28zm-15.63-16-1.15 3.23-2.15-.53 3.3-3.52zm-8.13-2.74v7.61h4.33l-.6-2 3.2.75h3.21v-.85h-1.66v-3.68h1.52l.52-1.01.52 1.01h1.52v3.68h-1.66v.84h4.06v-.84h-1.66v-3.68h1.53l.52-1.01.52 1.01h1.53v3.68h-1.66v.84h3.99v-.84h-1.66v-3.68h1.53l.52-1.01.52 1.01h1.52v3.68h-1.66v.84h2.03v1.26h5.5v-7.61zm30.45 40.41-.68.39 2.49 4.32.63-.37c1.33-.77 1.5-1.87.64-3.38-.6-1.07-1.49-1.89-3.09-.97"></path><path fill="#DB1D24" d="m241.974 69.405-2.28 1.32-3.4-5.89 2.3-1.33c2.08-1.2 3.93-1.15 5.05.81.93 1.65.71 3.72-1.66 5.09m-9.12 3.86-2.1-6.45 3.77-1.23.28.86-2.07.67.58 1.78 2.01-.65.28.87-2.01.65.68 2.08 2.45-.8.28.87-4.16 1.35zm-4.57.99-1.77.25-.82-5.83-1.9.27-.12-.89 5.54-.78.12.89-1.87.26zm-6.56.63-1.78-.09.36-6.77 1.78.09zm-5.23-.63-1.4-.38-2.35-5.64-1.25 4.67-1.56-.42 1.76-6.55 1.44.39 2.32 5.59 1.24-4.63 1.57.42-1.76 6.55zm-12.73-4.23c-1.15-.64-2.62-1.94-1.45-4.05l2.12-3.84 1.62.9-2.01 3.63c-.62 1.12-.85 1.96.16 2.52 1.02.59 1.65-.1 2.25-1.19l2.01-3.62 1.62.9-2.13 3.85c-1.16 2.1-2.96 1.59-4.19.9m49.83-16.72c-.91-1.01-2.29-1.65-3.51-1.65-2.08 0-2.95 1-3.59 1.73l-.09.11c-6.69 7.62-15.85 12.36-23.9 12.36s-17.21-4.74-23.9-12.36l-.09-.11c-.64-.73-1.51-1.73-3.59-1.73-1.21 0-2.59.65-3.5 1.65-.68.75-1.46 2.07-1.27 4.08.26 2.76 4.63 9.9 12.42 14.33 6.28 3.57 12.98 5.38 19.93 5.38s13.65-1.81 19.93-5.38c7.79-4.43 12.17-11.57 12.43-14.33.19-2.02-.59-3.33-1.27-4.08m-62.14-4.05c-.3.1-.44-.12-.58-.28-.54-.62-.68-2.27-.68-2.49s.08-.46.23-.46c1.31-.03 2.24-.42 3.09-1.12s1.22-1.49 1.3-1.65c.08-.15.25-.13.29.1.03.18.1.51.1.87 0 2.38-1.6 4.34-3.76 5.03m-1.36.21h-.11c-.97 0-2.02-.37-2.65-.72-.65-.36-.89-2.02-.89-2.87 0-2.73 1.13-4.37 1.31-4.69s.58-.36.88-.28.41.14.76.24c.19.06.56.14.84.2s.58.12.4.64-.78 1.77-.85 3.26c-.06 1.34.12 2.68.42 3.5.2.53.2.73-.1.72m-3.98-6.25c-.26-.14-.57-.8-.67-1-.07-.14-.07-.53.03-.7.43-.76 1.03-1.44 1.82-1.8.09-.04.23-.05.23.18 0 .13.06.32.06.44s.06.38-.1.58-.86 1.44-1.04 2.13c-.04.16-.08.32-.34.18m-.13 4.38c-.73-.72-1.25-2.02-1.25-3.38 0-.53.08-1.04.22-1.52 0 0 .12-.22.24-.03.08.13.2.27.3.45s.67.61.62.95c-.2 1.28-.02 2.99.04 3.27s-.03.41-.18.26m2.3-8.35c.54-.18 1.11-.28 1.71-.28.91 0 1.77.17 2.5.63.19.12.24.27.24.48 0 .68-1.08.91-1.79.91s-1.59-.28-2.21-.48c-.62-.19-.76-.56-.76-.72s.12-.48.32-.54m4.84.77c.1.08.35.29.35.29.5.45.95.98 1.22 1.6.33.79-.69 1.98-.99 2.26-1.35 1.26-2.19 1.24-2.67 1.31s-.79-.23-.78-.59c.03-1.06.79-2.88 1-3.21.14-.22.38-.36.38-.36.5-.14.98-.35 1.23-.64.25-.28.26-.66.26-.66m-3.09-1.38a5.84 5.84 0 0 0-5.84 5.84c0 3.23 2.61 5.84 5.84 5.84s5.84-2.61 5.84-5.84-2.61-5.84-5.84-5.84m69.17 8.95c-.15.15-.24.01-.18-.27s.24-1.99.04-3.27c-.05-.34.52-.77.62-.95.11-.18.22-.32.31-.45.12-.19.24.03.24.03.14.48.22.99.22 1.52 0 1.37-.52 2.66-1.25 3.39m-.48-4.57c-.17-.7-.88-1.93-1.04-2.13s-.11-.46-.1-.58c0-.12.06-.32.06-.44 0-.22.14-.22.23-.18.79.36 1.4 1.05 1.82 1.81.1.17.1.57.03.71-.1.2-.41.85-.67 1-.26.14-.3-.02-.34-.18m-.86 5.7c-.63.35-1.68.72-2.65.72h-.11c-.3.01-.3-.19-.1-.72.3-.82.48-2.15.42-3.5-.07-1.48-.67-2.74-.85-3.26s.12-.58.4-.64.65-.14.84-.19c.34-.1.46-.17.76-.24.3-.08.7-.04.88.28s1.31 1.96 1.31 4.69c0 .85-.24 2.5-.89 2.87m-4.15.5c-2.15-.7-3.76-2.65-3.76-5.03 0-.35.07-.68.1-.87.04-.22.21-.25.29-.1s.45.95 1.3 1.65 1.78 1.08 3.09 1.12c.15 0 .23.24.23.46s-.14 1.87-.68 2.49c-.14.16-.28.37-.58.28m-3.21-7.35c.26-.63.72-1.15 1.22-1.6 0 0 .25-.21.35-.29 0 0 .01.38.26.66s.73.5 1.23.64c0 0 .24.14.38.36.21.34.97 2.15 1 3.21.01.36-.29.66-.78.59-.48-.07-1.32-.05-2.67-1.31-.3-.28-1.32-1.47-.99-2.26m2.21-2.3c.73-.46 1.6-.63 2.5-.63.6 0 1.17.1 1.71.28.2.07.32.39.32.54s-.14.52-.76.72c-.62.19-1.5.48-2.21.48s-1.79-.23-1.79-.91c0-.21.06-.36.24-.48m2.44-.97a5.84 5.84 0 0 0-5.84 5.84c0 3.23 2.61 5.84 5.84 5.84s5.84-2.61 5.84-5.84-2.61-5.84-5.84-5.84m-61.92-19.02s-1.19 2.07-4.58 5.45v-1.5c2.54-2.34 3.75-4.69 3.75-4.69s-.94-.36-1.35-.89c-.21-.3-.3-.7-.26-.97.08-.51.48-.77.61-.82.3-.13.84-.41 1.45.42.65.91.48 2.61.39 3.02m-5.18 3.61c-.36.34-1.27.62-1.78.05-.2-.22-.32-.54-.3-.9.02-.42.28-.92.53-1.13.44-.38 2.32-2.28 3.68-3.78.03.27.27.73.27.73.18.26.41.62 1.03.92-.35.59-1.22 2.05-3.42 4.11m5.25-6.99c-.77-1.17-1.78-.71-2.08-.58-.19.08-.53.33-.74.67 0 0-2.11 2.33-4.44 4.62-.32.32-.69.92-.72 1.47-.03.49.17.98.46 1.29.63.68 1.74.64 2.31.21l.04 1.86c.59-.47 2.69-2.49 3.44-3.44l2.2-2.98c.13-.55.23-2.05-.47-3.12m65.6 7.04c-.47.5-1.42.37-1.78.03-2.24-2.06-3.14-3.6-3.49-4.19.62-.3 1.03-.76 1.03-.76.25-.35.24-.62.26-.89 1.36 1.48 3.31 3.46 3.75 3.83.25.21.49.66.51 1.08.02.37-.08.69-.28.9m-2.37 1.86c-3.49-3.37-4.62-5.53-4.62-5.53-.09-.4-.22-2.12.43-3.03.6-.84 1.15-.55 1.45-.42.13.06.53.32.61.82.04.27-.04.68-.26.97-.41.54-1.35.89-1.35.89s1.2 2.36 3.75 4.7v1.59zm3.25-2.73a2.35 2.35 0 0 0-.69-1.53c-2.34-2.28-4.41-4.56-4.41-4.56-.21-.34-.55-.59-.74-.67-.29-.13-1.31-.59-2.08.58-.7 1.07-.6 2.57-.47 3.12l2.19 2.98c.75.95 2.86 2.97 3.44 3.44l.04-1.86c.57.43 1.65.45 2.28-.23.29-.31.45-.78.43-1.27m-45.98-20.76c-1.18 0-3.57.8-4.11 5.02l.57-.23c1.95-.65 3.78-1.23 5.89-1.61-2.07.37-3.88.92-5.8 1.57.2-1.16.55-2.1 1.02-2.78-.04.6.45 1.24 1.43 1.24s1.52-.56 1.52-.9-.21-.83-.73-.83-.64.38-.6.53-.08.19-.23.23-.56-.19-.41-.71c.17-.58.86-.89 1.69-.89 1.57 0 3.29 1.12 4.82 2.19h.07l.52-.29c-1.9-1.49-3.78-2.51-5.65-2.51m17.42-.03c-1.87 0-3.76 1.01-5.65 2.51l.52.29s.07 0 .1.01c1.52-1.06 3.24-2.17 4.8-2.17.83 0 1.53.32 1.69.89.15.53-.26.75-.41.71s-.26-.08-.23-.23c.04-.15-.07-.53-.6-.53s-.73.49-.73.83.54.9 1.52.9 1.47-.64 1.43-1.24c.47.68.82 1.62 1.02 2.78l.09.03.57.23c-.54-4.22-2.93-5.02-4.11-5.02"></path><path fill="#DB1D24" d="M222.634 3.975c-.51 0-1.77.03-2.33.06.1-.16.17-.27.26-.41 0 0 .18.1.79.1s1.2-.5 1.28-1.01c.03-.22-.13-.67-.56-.6-.34.05-.26-.22-.26-.22.54-.62.82-.55.95-.55.65 0 1.59 1.59 2.08 2.73-.31-.02-1.71-.09-2.22-.09m2.86-.1c-.81-1.8-1.84-3.2-2.72-3.2-.7 0-1.97.97-3.36 3.63l.91-.12c.68-.06 1.8-.06 2.32-.06s1.84.01 2.32.1l.7.06-.17-.4zm25.35 21.85-1.71 1.54.3.34c.52.58 1.2.68 1.74.19s.54-1.11.07-1.64l-.4-.44z"></path><path fill="#DB1D24" d="M252.514 29.015c-1.14 1.03-2.18.52-2.19.5l-1.03 3.08-1.51-1.22 1.28-2.86-.59-.65-2 1.8-1.19-1.32 5.04-4.54 1.85 2.05c1 1.11 1.32 2.29.36 3.15m-7.51-2.59-.7.58-2.81-3.35 5.2-4.36 2.55 3.04-.69.58-1.4-1.66-1.43 1.2 1.36 1.62-.7.59-1.36-1.62-1.68 1.41 1.66 1.98zm-6.73-5.84 3.94-4.37-1.43-1.28.61-.66 4.15 3.74-.6.67-1.4-1.26-3.94 4.37-1.33-1.19zm-1.09-6.25c.13.28.31.51.47.83.56 1.11.56 1.72.09 2.47-.64 1.07-2.03 1.19-3.29.43-1.02-.61-1.49-1.33-1.68-2.01l.9-.39c.15.5.31 1.01 1.01 1.45.54.34 1.11.22 1.43-.32.26-.44-.12-1.13-.44-1.68-.14-.27-.38-.67-.38-.67-.37-.7-.51-1.39-.01-2.21.49-.82 1.67-1.05 3.12-.18.84.51 1.22 1.11 1.47 1.78l-.82.36c-.1-.36-.32-.88-.84-1.2-.5-.3-1.04-.27-1.28.12-.22.36.01.74.26 1.21m-4.96 1.21-.3.86-4.13-1.42 2.21-6.41 3.75 1.29-.29.85-2.05-.71-.61 1.77 2 .69-.3.86-2-.69-.71 2.07 2.44.84zm-5.78-.7-1.78-.03.05-3.1-2.66-.05-.05 3.1-1.78-.03.12-6.78 1.78.03-.05 2.77 2.66.05.05-2.77 1.78.03zm-8.98.51c-3.37.72-4.44-1.49-4.71-2.68-.48-2.21.98-3.84 3.2-4.31 1-.21 1.64-.07 2.17.15l-.21.86h-.01c-.31-.12-.79-.33-1.58-.16-1.12.24-2.1 1.41-1.74 3.09.24 1.14 1.22 2.46 2.84 2.12.78-.17 1.13-.54 1.35-.8l.62.71c-.49.46-1 .84-1.93 1.02m-5.4 1.68-5.73-2.12 2.56 4.1-1.37.86-3.59-5.75 1.27-.79 5.66 2.12-2.54-4.07 1.38-.86 3.59 5.75-1.23.77zm-6.33 4.69-1.78-.75-1.57 1.69.88 1.71-.79.85-3.25-6.46 1.16-1.24 6.66 2.8zm-5.13 5.62-3.69-3.1 2.34 4.7-.52.62-4.92-1.6 3.67 3.09-.79.93-5.2-4.36 1.08-1.29 5.06 1.66-2.36-4.88 1.26-1.5 5.2 4.36-1.15 1.37zm57.37.72c-1.42-.98-3.8-2.62-7.78-8.27-2.38-3.38-11.41-14.39-27.71-14.39s-25.33 11.02-27.71 14.39c-3.96 5.61-6.44 7.32-7.77 8.24l-.05.04v.06c.06 1.69.56 7.27 4.58 8.29 2.79.71 5.7-1.02 8.89-5.27.12-.15.28-.39.47-.66 2.36-3.36 9.53-13.58 21.58-13.58s19.23 10.23 21.59 13.58c.19.27.36.51.47.66 3.19 4.25 6.1 5.97 8.89 5.27 4.04-1.02 4.54-6.58 4.59-8.26v-.06l-.05-.04z"></path><path fill="#DB1D24" d="m203.154 20.575-2.38-1.07 1.2 2.33zm42.27 56.01h.62c.42-.02.51-.21.51-.42s-.09-.4-.51-.42h-.62zm.01.32v1.22h-.38v-2.71h.97c.45 0 .92.14.92.68 0 .33-.2.58-.51.65.33.09.37.26.41.56.04.27.07.56.17.81h-.4c-.03-.16-.08-.34-.1-.5-.03-.24-.03-.46-.15-.6-.11-.12-.26-.11-.41-.12h-.53z"></path><path fill="#DB1D24" d="M244.184 76.805a1.81 1.81 0 1 1 3.62 0 1.81 1.81 0 0 1-3.62 0m-.28 0c0 1.15.94 2.09 2.09 2.09s2.09-.94 2.09-2.09-.94-2.09-2.09-2.09-2.09.94-2.09 2.09"></path></g><defs><clipPath id="i1825449985__a"><path fill="#fff" d="M.874.685h422.07v80.63H.874z"></path></clipPath></defs></svg>